<?xml version="1.0" encoding="utf-8"?>
<svg version="1.2" baseProfile="tiny" xmlns="http://www.w3.org/2000/svg" xmlns:xlink="http://www.w3.org/1999/xlink" x="0px"
	 y="0px" viewBox="0 0 137.7 61.7" xml:space="preserve">
<g>
	<g>
		<path d="M50,33.9c0-0.7,0-1.5-0.1-2.2c-0.1-0.7-0.2-1.5-0.4-2.1H33.3v-3h18.4c0.3,0.9,0.6,2,0.9,3.2c0.2,1.2,0.4,2.6,0.4,4.2
			c0,7-2.5,12.9-7.4,17.8c-4.9,4.9-10.9,7.4-17.9,7.4c-6.8,0-12.6-2.5-17.6-7.5c-5-5-7.5-10.9-7.5-17.7c0-6.7,2.5-12.5,7.5-17.6
			c5-5.1,10.8-7.6,17.6-7.6v3c-6.1,0-11.3,2.2-15.6,6.5C7.6,22.6,5.5,27.8,5.5,34c0,6,2.2,11.2,6.6,15.5c4.4,4.4,9.6,6.6,15.6,6.6
			c6,0,11.2-2.2,15.6-6.6C47.8,45.1,50,39.9,50,33.9z"/>
	</g>
	<g>
		<path d="M71.5,20c0,4.5-1.6,8.4-4.9,11.7c-3.3,3.3-7.1,4.9-11.6,4.9v-2c3.8,0,7.2-1.4,10-4.4c2.8-2.9,4.2-6.3,4.2-10.2
			c0-0.4,0-0.7,0-1.1c0-0.3-0.1-0.8-0.2-1.4H40.9l-0.2,2.7c0,1.1,0,1.9,0.1,2.3c0.1,0.5,0.2,1.1,0.4,2l-1.9,0.7
			c-0.3-1-0.5-1.9-0.6-2.6c-0.1-0.8-0.2-1.6-0.2-2.4c0-4.4,1.6-8.3,4.9-11.6c3.2-3.3,7.1-5,11.6-5c4.4,0,8.3,1.7,11.6,5
			C69.9,11.9,71.5,15.7,71.5,20z M68.4,15.2c-1-2.7-2.8-5-5.3-6.8c-2.5-1.8-5.2-2.7-8.2-2.7c-3,0-5.8,0.9-8.3,2.6
			c-2.5,1.8-4.2,4-5.1,6.8H68.4z"/>
		<path d="M92.4,20.1c0,4.4-1.6,8.3-4.9,11.6c-3.3,3.3-7.2,5-11.7,5h-1.1v-33l1-0.1c4.6,0,8.6,1.7,11.9,5.1
			C90.8,12,92.4,15.8,92.4,20.1z M90.1,20.1c0-3.9-1.4-7.2-4.1-10.1c-2.7-2.8-5.8-4.3-9.2-4.3v28.6c3.4,0,6.5-1.4,9.2-4.2
			C88.8,27.3,90.1,24,90.1,20.1z"/>
		<path d="M113.5,36.6c-4.9,0-9-1.7-12.4-5.2c-3.1-3.2-4.6-6.8-4.6-10.8c0-5,1.6-9.1,4.9-12.2c3.2-3.2,7.2-4.7,12-4.7l0.1,2.2
			c-3.4,0-6.4,0.9-8.9,2.7c-2.4,1.7-4.1,3.9-5.1,6.7l9.1,0.1l0.1,2.2h-9.8c0,0.2-0.1,0.4-0.1,0.7c0,0.3,0,0.6,0,0.7v1.7
			c0,3.4,1.3,6.5,4,9.3c2.9,3,6.5,4.6,10.6,4.6L113.5,36.6z"/>
		<path d="M134.9,36.6c-4.6,0-8.5-1.6-11.8-4.9c-3.3-3.3-4.9-7.2-4.9-11.6c0-4.4,1.6-8.2,4.9-11.5c3.3-3.3,7.2-4.9,11.6-4.9l0.1,2.2
			c-4,0-7.5,1.4-10.3,4.1c-2.8,2.8-4.2,6.1-4.2,10.1c0,3.8,1.4,7.2,4.3,10.1c2.8,2.9,6.2,4.3,10.1,4.3L134.9,36.6z"/>
	</g>
</g>
<rect x="53.8" y="41.2" fill="#CC6635" width="81.7" height="2.7"/>
</svg>
